<mxfile host="app.diagrams.net" modified="2022-02-10T14:22:57.265Z" agent="5.0 (X11; Linux x86_64) AppleWebKit/537.36 (KHTML, like Gecko) Chrome/97.0.4692.99 Safari/537.36 OPR/83.0.4254.27" etag="7I_3EgZP0EWny6sMme9z" version="16.5.4" type="github">
  <diagram name="Page-1" id="fc2ac565-0d4e-3f0d-88b0-a54af1634ed7">
    <mxGraphModel dx="1382" dy="811" grid="1" gridSize="10" guides="1" tooltips="1" connect="0" arrows="1" fold="1" page="1" pageScale="1.5" pageWidth="1169" pageHeight="827" background="none" math="0" shadow="0">
      <root>
        <mxCell id="0" style=";html=1;" />
        <mxCell id="1" style=";html=1;" parent="0" />
        <mxCell id="75" value="Sprint 1: Analyze" style="align=left;strokeColor=#CCCCCC;html=1;" parent="1" vertex="1">
          <mxGeometry x="297.0000000000003" y="149.99999999999977" width="319.9999999999997" height="20.000000000000014" as="geometry" />
        </mxCell>
        <mxCell id="80" value="Sprint 2: Design" style="align=left;strokeColor=#CCCCCC;html=1;" parent="1" vertex="1">
          <mxGeometry x="297" y="170.00000000000023" width="320" height="20" as="geometry" />
        </mxCell>
        <mxCell id="85" value="Sprint 3: Realise" style="align=left;strokeColor=#CCCCCC;html=1;" parent="1" vertex="1">
          <mxGeometry x="296.9999999999999" y="190.00000000000023" width="320.0000000000001" height="20" as="geometry" />
        </mxCell>
        <mxCell id="90" value="Sprint 4: Research" style="align=left;strokeColor=#CCCCCC;html=1;" parent="1" vertex="1">
          <mxGeometry x="296.9999999999999" y="210.00000000000045" width="320.0000000000001" height="20" as="geometry" />
        </mxCell>
        <mxCell id="95" value="Sprint 5: Professionalise" style="align=left;strokeColor=#CCCCCC;html=1;" parent="1" vertex="1">
          <mxGeometry x="297.0000000000006" y="230.00000000000068" width="319.9999999999994" height="20" as="geometry" />
        </mxCell>
        <mxCell id="67c90442a009f359-291" value="" style="align=left;strokeColor=#CCCCCC;html=1;" parent="1" vertex="1">
          <mxGeometry x="617" y="150" width="633" height="20" as="geometry" />
        </mxCell>
        <mxCell id="4" value="1" style="strokeWidth=1;fontStyle=0;html=1;" parent="1" vertex="1">
          <mxGeometry x="617" y="130" width="70" height="20" as="geometry" />
        </mxCell>
        <mxCell id="67c90442a009f359-278" value="2" style="strokeWidth=1;fontStyle=0;html=1;" parent="1" vertex="1">
          <mxGeometry x="687" y="130" width="70" height="20" as="geometry" />
        </mxCell>
        <mxCell id="67c90442a009f359-279" value="3" style="strokeWidth=1;fontStyle=0;html=1;" parent="1" vertex="1">
          <mxGeometry x="757" y="130" width="70" height="20" as="geometry" />
        </mxCell>
        <mxCell id="67c90442a009f359-280" value="4" style="strokeWidth=1;fontStyle=0;html=1;" parent="1" vertex="1">
          <mxGeometry x="827" y="130" width="70" height="20" as="geometry" />
        </mxCell>
        <mxCell id="67c90442a009f359-281" value="5" style="strokeWidth=1;fontStyle=0;html=1;" parent="1" vertex="1">
          <mxGeometry x="897" y="130" width="70" height="20" as="geometry" />
        </mxCell>
        <mxCell id="67c90442a009f359-282" value="6" style="strokeWidth=1;fontStyle=0;html=1;" parent="1" vertex="1">
          <mxGeometry x="967" y="130" width="70" height="20" as="geometry" />
        </mxCell>
        <mxCell id="67c90442a009f359-283" value="7" style="strokeWidth=1;fontStyle=0;html=1;" parent="1" vertex="1">
          <mxGeometry x="1037" y="130" width="70" height="20" as="geometry" />
        </mxCell>
        <mxCell id="67c90442a009f359-284" value="8" style="strokeWidth=1;fontStyle=0;html=1;" parent="1" vertex="1">
          <mxGeometry x="1107" y="130" width="70" height="20" as="geometry" />
        </mxCell>
        <mxCell id="67c90442a009f359-285" value="9" style="strokeWidth=1;fontStyle=0;html=1;" parent="1" vertex="1">
          <mxGeometry x="1177" y="130" width="70" height="20" as="geometry" />
        </mxCell>
        <mxCell id="67c90442a009f359-292" value="" style="align=left;strokeColor=#CCCCCC;html=1;" parent="1" vertex="1">
          <mxGeometry x="617" y="170" width="633" height="20" as="geometry" />
        </mxCell>
        <mxCell id="67c90442a009f359-293" value="" style="align=left;strokeColor=#CCCCCC;html=1;" parent="1" vertex="1">
          <mxGeometry x="617" y="190" width="633" height="20" as="geometry" />
        </mxCell>
        <mxCell id="67c90442a009f359-294" value="" style="align=left;strokeColor=#CCCCCC;html=1;" parent="1" vertex="1">
          <mxGeometry x="617" y="210" width="633" height="20" as="geometry" />
        </mxCell>
        <mxCell id="67c90442a009f359-295" value="" style="align=left;strokeColor=#CCCCCC;html=1;" parent="1" vertex="1">
          <mxGeometry x="617" y="230" width="633" height="20" as="geometry" />
        </mxCell>
        <mxCell id="67c90442a009f359-299" value="" style="whiteSpace=wrap;html=1;strokeWidth=2;fillColor=#d5e8d4;fontSize=14;align=center;strokeColor=#82b366;" parent="1" vertex="1">
          <mxGeometry x="720" y="150" width="180" height="20" as="geometry" />
        </mxCell>
        <mxCell id="67c90442a009f359-300" value="" style="whiteSpace=wrap;html=1;strokeWidth=2;fillColor=#f8cecc;fontSize=14;align=center;strokeColor=#b85450;" parent="1" vertex="1">
          <mxGeometry x="860" y="170" width="250" height="20" as="geometry" />
        </mxCell>
        <mxCell id="67c90442a009f359-301" value="" style="whiteSpace=wrap;html=1;strokeWidth=2;fillColor=#dae8fc;fontSize=14;align=center;strokeColor=#6c8ebf;" parent="1" vertex="1">
          <mxGeometry x="1030" y="190" width="220" height="20" as="geometry" />
        </mxCell>
        <mxCell id="wDUFXGcasO93pR2YLoVT-100" value="Feb" style="strokeWidth=1;fontStyle=0;html=1;" vertex="1" parent="1">
          <mxGeometry x="617" y="110" width="163" height="20" as="geometry" />
        </mxCell>
        <mxCell id="wDUFXGcasO93pR2YLoVT-102" value="Mar" style="strokeWidth=1;fontStyle=0;html=1;" vertex="1" parent="1">
          <mxGeometry x="780" y="110" width="290" height="20" as="geometry" />
        </mxCell>
        <mxCell id="wDUFXGcasO93pR2YLoVT-107" value="April" style="strokeWidth=1;fontStyle=0;html=1;" vertex="1" parent="1">
          <mxGeometry x="1070" y="110" width="180" height="20" as="geometry" />
        </mxCell>
        <mxCell id="wDUFXGcasO93pR2YLoVT-109" value="Sprint 1: Analyze" style="align=left;strokeColor=#CCCCCC;html=1;" vertex="1" parent="1">
          <mxGeometry x="297.0000000000003" y="289.9999999999998" width="319.9999999999997" height="20.000000000000014" as="geometry" />
        </mxCell>
        <mxCell id="wDUFXGcasO93pR2YLoVT-110" value="Sprint 2: Design" style="align=left;strokeColor=#CCCCCC;html=1;" vertex="1" parent="1">
          <mxGeometry x="297" y="310.0000000000002" width="320" height="20" as="geometry" />
        </mxCell>
        <mxCell id="wDUFXGcasO93pR2YLoVT-111" value="Sprint 3: Realise" style="align=left;strokeColor=#CCCCCC;html=1;" vertex="1" parent="1">
          <mxGeometry x="296.9999999999999" y="330.0000000000002" width="320.0000000000001" height="20" as="geometry" />
        </mxCell>
        <mxCell id="wDUFXGcasO93pR2YLoVT-112" value="Sprint 4: Research" style="align=left;strokeColor=#CCCCCC;html=1;" vertex="1" parent="1">
          <mxGeometry x="296.9999999999999" y="350.00000000000045" width="320.0000000000001" height="20" as="geometry" />
        </mxCell>
        <mxCell id="wDUFXGcasO93pR2YLoVT-113" value="Sprint 5: Professionalise" style="align=left;strokeColor=#CCCCCC;html=1;" vertex="1" parent="1">
          <mxGeometry x="297.0000000000006" y="370.0000000000007" width="319.9999999999994" height="20" as="geometry" />
        </mxCell>
        <mxCell id="wDUFXGcasO93pR2YLoVT-114" value="" style="align=left;strokeColor=#CCCCCC;html=1;" vertex="1" parent="1">
          <mxGeometry x="617" y="290" width="633" height="20" as="geometry" />
        </mxCell>
        <mxCell id="wDUFXGcasO93pR2YLoVT-115" value="10" style="strokeWidth=1;fontStyle=0;html=1;" vertex="1" parent="1">
          <mxGeometry x="617" y="270" width="70" height="20" as="geometry" />
        </mxCell>
        <mxCell id="wDUFXGcasO93pR2YLoVT-116" value="11" style="strokeWidth=1;fontStyle=0;html=1;" vertex="1" parent="1">
          <mxGeometry x="687" y="270" width="70" height="20" as="geometry" />
        </mxCell>
        <mxCell id="wDUFXGcasO93pR2YLoVT-117" value="12" style="strokeWidth=1;fontStyle=0;html=1;" vertex="1" parent="1">
          <mxGeometry x="757" y="270" width="70" height="20" as="geometry" />
        </mxCell>
        <mxCell id="wDUFXGcasO93pR2YLoVT-118" value="13" style="strokeWidth=1;fontStyle=0;html=1;" vertex="1" parent="1">
          <mxGeometry x="827" y="270" width="70" height="20" as="geometry" />
        </mxCell>
        <mxCell id="wDUFXGcasO93pR2YLoVT-119" value="14" style="strokeWidth=1;fontStyle=0;html=1;" vertex="1" parent="1">
          <mxGeometry x="897" y="270" width="70" height="20" as="geometry" />
        </mxCell>
        <mxCell id="wDUFXGcasO93pR2YLoVT-120" value="15" style="strokeWidth=1;fontStyle=0;html=1;" vertex="1" parent="1">
          <mxGeometry x="967" y="270" width="70" height="20" as="geometry" />
        </mxCell>
        <mxCell id="wDUFXGcasO93pR2YLoVT-121" value="16" style="strokeWidth=1;fontStyle=0;html=1;" vertex="1" parent="1">
          <mxGeometry x="1037" y="270" width="70" height="20" as="geometry" />
        </mxCell>
        <mxCell id="wDUFXGcasO93pR2YLoVT-122" value="17" style="strokeWidth=1;fontStyle=0;html=1;" vertex="1" parent="1">
          <mxGeometry x="1107" y="270" width="70" height="20" as="geometry" />
        </mxCell>
        <mxCell id="wDUFXGcasO93pR2YLoVT-123" value="18" style="strokeWidth=1;fontStyle=0;html=1;" vertex="1" parent="1">
          <mxGeometry x="1177" y="270" width="70" height="20" as="geometry" />
        </mxCell>
        <mxCell id="wDUFXGcasO93pR2YLoVT-124" value="" style="align=left;strokeColor=#CCCCCC;html=1;" vertex="1" parent="1">
          <mxGeometry x="617" y="310" width="633" height="20" as="geometry" />
        </mxCell>
        <mxCell id="wDUFXGcasO93pR2YLoVT-125" value="" style="align=left;strokeColor=#CCCCCC;html=1;" vertex="1" parent="1">
          <mxGeometry x="617" y="330" width="633" height="20" as="geometry" />
        </mxCell>
        <mxCell id="wDUFXGcasO93pR2YLoVT-126" value="" style="align=left;strokeColor=#CCCCCC;html=1;" vertex="1" parent="1">
          <mxGeometry x="617" y="350" width="633" height="20" as="geometry" />
        </mxCell>
        <mxCell id="wDUFXGcasO93pR2YLoVT-127" value="" style="align=left;strokeColor=#CCCCCC;html=1;" vertex="1" parent="1">
          <mxGeometry x="617" y="370" width="633" height="20" as="geometry" />
        </mxCell>
        <mxCell id="wDUFXGcasO93pR2YLoVT-131" value="" style="whiteSpace=wrap;html=1;strokeWidth=2;fillColor=#fff2cc;fontSize=14;align=center;strokeColor=#d6b656;" vertex="1" parent="1">
          <mxGeometry x="830" y="350" width="210" height="20" as="geometry" />
        </mxCell>
        <mxCell id="wDUFXGcasO93pR2YLoVT-132" value="" style="whiteSpace=wrap;html=1;strokeWidth=2;fillColor=#1ba1e2;fontSize=14;align=center;strokeColor=#006EAF;fontColor=#ffffff;opacity=40;" vertex="1" parent="1">
          <mxGeometry x="1040" y="370" width="207" height="20" as="geometry" />
        </mxCell>
        <mxCell id="wDUFXGcasO93pR2YLoVT-133" value="April" style="strokeWidth=1;fontStyle=0;html=1;" vertex="1" parent="1">
          <mxGeometry x="617" y="250" width="143" height="20" as="geometry" />
        </mxCell>
        <mxCell id="wDUFXGcasO93pR2YLoVT-134" value="Mar" style="strokeWidth=1;fontStyle=0;html=1;" vertex="1" parent="1">
          <mxGeometry x="760" y="250" width="260" height="20" as="geometry" />
        </mxCell>
        <mxCell id="wDUFXGcasO93pR2YLoVT-135" value="June" style="strokeWidth=1;fontStyle=0;html=1;" vertex="1" parent="1">
          <mxGeometry x="1020" y="250" width="230" height="20" as="geometry" />
        </mxCell>
        <mxCell id="wDUFXGcasO93pR2YLoVT-136" value="" style="whiteSpace=wrap;html=1;strokeWidth=2;fillColor=#dae8fc;fontSize=14;align=center;strokeColor=#6c8ebf;" vertex="1" parent="1">
          <mxGeometry x="617" y="330" width="283" height="20" as="geometry" />
        </mxCell>
      </root>
    </mxGraphModel>
  </diagram>
</mxfile>
